#N canvas 227 107 520 565 10;
#X declare -lib mrpeach;
#X msg 13 88 connect localhost 9001;
#X obj 85 523 udpsend;
#X obj 266 466 packOSC;
#X msg 85 110 disconnect;
#X obj 14 56 import mrpeach;
#X text 458 366 mute;
#X msg 352 367 send /test/mute;
#X text 167 88 <-- connect first;
#X floatatom 217 121 5 60 72 0 - - -;
#X text 268 122 <-- choose a base note;
#X obj 217 153 trigger b f f f b;
#X text 396 185 open bundle;
#X text 116 178 close bundle;
#X msg 396 202 [;
#X msg 173 202 ];
#X obj 266 224 + 4;
#X msg 233 202 /test/voice1 \$1;
#X msg 266 247 /test/voice2 \$1;
#X obj 291 268 + 6;
#X msg 291 296 /test/voice3 \$1;
#X text 390 250 bundle contents:;
#X text 389 266 3 messages;
#X text 13 26 sending OSC message bundles;
#X connect 0 0 1 0;
#X connect 2 0 1 0;
#X connect 3 0 1 0;
#X connect 6 0 2 0;
#X connect 8 0 10 0;
#X connect 10 0 14 0;
#X connect 10 1 16 0;
#X connect 10 2 15 0;
#X connect 10 3 18 0;
#X connect 10 4 13 0;
#X connect 13 0 2 0;
#X connect 14 0 2 0;
#X connect 15 0 17 0;
#X connect 16 0 2 0;
#X connect 17 0 2 0;
#X connect 18 0 19 0;
#X connect 19 0 2 0;
