#N canvas 292 241 409 374 10;
#X declare -lib mrpeach;
#X msg 13 88 connect localhost 9001;
#X obj 85 342 udpsend;
#X floatatom 148 158 5 60 72 0 - - -;
#X obj 148 286 packOSC;
#X msg 85 110 disconnect;
#X text 134 140 a MIDI note;
#X obj 13 54 import mrpeach;
#X text 165 86 <-- connect first;
#X msg 148 181 send /test/voice \$1;
#X text 194 157 <-- send a MIDI note;
#X text 309 230 <-- mute;
#X msg 209 231 send /test/mute;
#X text 10 24 sending OSC messages with different addresses;
#X connect 0 0 1 0;
#X connect 2 0 8 0;
#X connect 3 0 1 0;
#X connect 4 0 1 0;
#X connect 8 0 3 0;
#X connect 11 0 3 0;
