#N canvas 211 250 510 429 10;
#X declare -lib mrpeach;
#X msg 13 88 connect localhost 9001;
#X obj 85 402 udpsend;
#X obj 148 346 packOSC;
#X msg 85 110 disconnect;
#X text 201 161 prepare a typed message;
#X text 256 258 another message;
#X obj 14 49 import mrpeach;
#X text 199 174 (TRUE \, integer and float);
#X text 323 305 mute;
#X msg 220 307 send /test/mute;
#X text 253 270 (FALSE \, integer and float);
#X text 167 88 <-- connect first;
#X msg 149 196 sendtyped /test/voice Tif 60 0.5;
#X msg 179 237 sendtyped /test/voice Fif 60 0.5;
#X text 11 17 send typed OSC messages;
#X connect 0 0 1 0;
#X connect 2 0 1 0;
#X connect 3 0 1 0;
#X connect 9 0 2 0;
#X connect 12 0 2 0;
#X connect 13 0 2 0;
