#N canvas 429 206 415 370 10;
#X declare -lib mrpeach;
#X msg 15 110 connect localhost 9001;
#X obj 15 282 udpsend;
#X msg 78 201 send /test \$1;
#X floatatom 78 178 5 0 0 0 - - -;
#X obj 78 226 packOSC;
#X msg 87 132 disconnect;
#X text 117 65 <-- import mrpeach objects;
#X text 165 108 <-- connect to port 9001;
#X text 189 123 on the local computer;
#X text 172 201 <-- prepare an OSC message;
#X text 171 227 <-- pack the message;
#X text 194 244 as an array of bytes;
#X text 84 282 <-- send the packed message;
#X obj 15 66 import mrpeach;
#X text 16 30 sending OSC messages;
#X connect 0 0 1 0;
#X connect 2 0 4 0;
#X connect 3 0 2 0;
#X connect 4 0 1 0;
#X connect 5 0 1 0;
