#N canvas 499 84 514 587 10;
#X declare -lib mrpeach;
#X obj 137 106 udpreceive 9001;
#X obj 137 139 unpackOSC;
#X obj 137 167 routeOSC /test;
#X obj 206 545 dac~;
#X obj 215 492 *~ 0.5;
#X text 271 192 <-- route messages;
#X obj 40 67 import mrpeach;
#X msg 325 344 0;
#X text 359 342 message was /mute;
#X obj 137 194 routeOSC /voice /mute;
#X obj 171 279 mtof;
#X obj 137 335 osc~;
#X obj 171 335 phasor~;
#X obj 117 406 mux~;
#X obj 137 229 unpack f f f;
#X text -1 228 message was /voice -->;
#X text -1 242 unpack the arguments;
#X text -37 419 according to the value;
#X text -38 436 of the first argument;
#X text -38 404 output a sine or saw -->;
#X text -14 26 receiving typed OSC messages;
#X connect 0 0 1 0;
#X connect 1 0 2 0;
#X connect 2 0 9 0;
#X connect 4 0 3 0;
#X connect 4 0 3 1;
#X connect 7 0 4 1;
#X connect 9 0 14 0;
#X connect 9 1 7 0;
#X connect 10 0 12 0;
#X connect 10 0 11 0;
#X connect 11 0 13 0;
#X connect 12 0 13 1;
#X connect 13 0 4 0;
#X connect 14 0 13 0;
#X connect 14 1 10 0;
#X connect 14 2 4 1;
