#N canvas 474 192 471 481 10;
#X declare -lib mrpeach;
#X obj 75 159 unpackOSC;
#X obj 75 187 routeOSC /test;
#X obj 90 395 dac~;
#X obj 75 276 mtof;
#X obj 75 302 osc~;
#X obj 99 362 *~ 0.5;
#X text 209 212 <-- route messages;
#X obj 75 242 unpack f f;
#X obj -5 56 import mrpeach;
#X obj 132 277 dbtorms;
#X msg 186 275 0;
#X text 218 271 <-- message was /mute;
#X obj 76 214 routeOSC /voice /mute;
#X text -57 272 and the amplitude;
#X text -75 256 unpack the MIDI note;
#X text -63 241 message was /voice -->;
#X text -7 9 receiving OSC messages with arguments;
#X obj 75 126 udpreceive 5001;
#X connect 0 0 1 0;
#X connect 1 0 12 0;
#X connect 3 0 4 0;
#X connect 4 0 5 0;
#X connect 5 0 2 0;
#X connect 5 0 2 1;
#X connect 7 0 3 0;
#X connect 7 1 9 0;
#X connect 9 0 5 1;
#X connect 10 0 5 1;
#X connect 12 0 7 0;
#X connect 12 1 10 0;
#X connect 17 0 0 0;
