#N canvas 327 80 446 569 10;
#X declare -lib mrpeach;
#X obj 67 76 udpreceive 9001;
#X obj 67 109 unpackOSC;
#X obj 67 137 routeOSC /test;
#X obj 116 535 dac~;
#X obj 16 276 mtof;
#X obj 16 302 osc~;
#X obj 125 482 *~ 0.5;
#X text 301 162 <-- route messages;
#X obj 20 40 import mrpeach;
#X msg 305 304 0;
#X text 309 286 message was /mute;
#X obj 67 164 routeOSC /voice1 /voice2 /voice3 /mute;
#X obj 123 276 mtof;
#X obj 123 302 osc~;
#X obj 209 275 mtof;
#X obj 209 301 osc~;
#X obj 254 439 dbtorms;
#X text 312 413 <-- set volume;
#X obj 16 228 t f b;
#X obj 123 228 t f b;
#X obj 208 229 t f b;
#X obj 254 415 nbx 5 14 0 100 0 1 empty empty empty 0 -8 0 10 -262144
-1 -1 50 256;
#X obj 43 252 s vol;
#X obj 150 252 s vol;
#X obj 235 252 s vol;
#X obj 254 389 r vol;
#X text 18 7 receiving OSC message bundles;
#X connect 0 0 1 0;
#X connect 1 0 2 0;
#X connect 2 0 11 0;
#X connect 4 0 5 0;
#X connect 5 0 6 0;
#X connect 6 0 3 0;
#X connect 6 0 3 1;
#X connect 9 0 6 1;
#X connect 11 0 18 0;
#X connect 11 1 19 0;
#X connect 11 2 20 0;
#X connect 11 3 9 0;
#X connect 12 0 13 0;
#X connect 13 0 6 0;
#X connect 14 0 15 0;
#X connect 15 0 6 0;
#X connect 16 0 6 1;
#X connect 18 0 4 0;
#X connect 18 1 22 0;
#X connect 19 0 12 0;
#X connect 19 1 23 0;
#X connect 20 0 14 0;
#X connect 20 1 24 0;
#X connect 21 0 16 0;
#X connect 25 0 21 0;
