#N canvas 279 256 442 495 10;
#X declare -lib mrpeach;
#X msg 13 88 connect localhost 9001;
#X obj 85 457 udpsend;
#X floatatom 148 168 5 60 128 0 - - -;
#X obj 148 401 packOSC;
#X msg 85 110 disconnect;
#X text 134 150 a MIDI note;
#X floatatom 218 168 5 0 100 0 - - -;
#X obj 148 265 pack 0 0;
#X text 216 148 amplitude (0 to 100);
#X obj 218 226 t b f;
#X obj 13 54 import mrpeach;
#X text 292 301 <-- prepare a message;
#X text 315 317 with 2 arguments;
#X text 170 88 <-- connect first;
#X msg 148 301 send /test/voice \$1 \$2;
#X text 319 353 <-- mute;
#X msg 219 354 send /test/mute;
#X text 13 15 sending OSC messages with arguments;
#X connect 0 0 1 0;
#X connect 2 0 7 0;
#X connect 3 0 1 0;
#X connect 4 0 1 0;
#X connect 6 0 9 0;
#X connect 7 0 14 0;
#X connect 9 0 7 0;
#X connect 9 1 7 1;
#X connect 14 0 3 0;
#X connect 16 0 3 0;
