#N canvas 285 154 482 427 10;
#X declare -lib mrpeach;
#X obj 124 96 udpreceive 9001;
#X obj 124 129 unpackOSC;
#X text 128 59 <-- don't forget to import mrpeach objects;
#X obj 124 157 routeOSC /test;
#X obj 143 385 dac~;
#X obj 124 246 mtof;
#X obj 124 272 osc~;
#X obj 152 352 *~ 0.5;
#X text 265 183 <-- route messages;
#X obj 25 60 import mrpeach;
#X floatatom 204 303 5 0 100 0 - - -;
#X obj 204 331 dbtorms;
#X text 244 303 <-- set volume;
#X obj 124 184 routeOSC /voice /mute;
#X msg 185 249 0;
#X text 217 245 <-- message was /mute;
#X text -14 247 message was /voice -->;
#X obj 124 222 t f b;
#X text 4 22 receiving OSC messages with different addresses;
#X connect 0 0 1 0;
#X connect 1 0 3 0;
#X connect 3 0 13 0;
#X connect 5 0 6 0;
#X connect 6 0 7 0;
#X connect 7 0 4 0;
#X connect 7 0 4 1;
#X connect 10 0 11 0;
#X connect 11 0 7 1;
#X connect 13 0 17 0;
#X connect 13 1 14 0;
#X connect 14 0 7 1;
#X connect 17 0 5 0;
#X connect 17 1 10 0;
