#N canvas 941 134 736 727 10;
#X text 17 11 this abstraction is used as an input module in most of
the documentation patches. change it to reflect your preferred input
object.;
#X obj 334 118 inlet;
#X msg 315 324 stop;
#X obj 258 672 outlet;
#X obj 262 385 metro;
#X obj 292 360 nbx 5 14 -1e+37 1e+37 0 1 empty empty empty 0 -6 0 10
-262144 -1 -1 100 256;
#X obj 260 88 loadbang;
#X obj 199 169 bng 15 250 50 0 empty empty empty 0 -6 0 8 -262144 -1
-1;
#X text 171 189 connect here;
#X obj 187 470 bng 15 250 50 0 empty empty empty 0 -6 0 8 -262144 -1
-1;
#X text 45 329 v4l device;
#X text 39 306 change this to your;
#X obj 260 137 bng 15 250 50 0 empty empty empty 0 -6 0 8 -262144 -1
-1;
#X obj 262 426 bng 15 250 50 0 empty empty empty 0 -6 0 8 -262144 -1
-1;
#X msg 262 325 bang;
#X text 163 203 for video4linux;
#X text 156 497 connect here;
#X text 148 511 for video4linux;
#X text 308 377 set framerate here;
#X obj 262 258 route start stop;
#X obj 329 292 select 0;
#X obj 262 292 select 1;
#X obj 247 601 pdp_noise;
#X obj 268 523 bng 15 250 50 0 empty empty empty 0 -6 0 8 -262144 -1
-1;
#X text 236 552 connect here;
#X text 239 566 for noise input;
#X msg 23 285 open /dev/video0;
#X msg 40 357 open /dev/video1;
#X obj 23 524 pdp_v4l;
#X obj 42 598 pdp_v4l /dev/video RGB24;
#X connect 1 0 19 0;
#X connect 1 0 6 0;
#X connect 2 0 4 0;
#X connect 4 0 13 0;
#X connect 5 0 4 1;
#X connect 6 0 12 0;
#X connect 7 0 26 0;
#X connect 9 0 28 0;
#X connect 12 0 7 0;
#X connect 13 0 9 0;
#X connect 14 0 4 0;
#X connect 19 0 14 0;
#X connect 19 1 2 0;
#X connect 19 2 21 0;
#X connect 20 0 2 0;
#X connect 21 0 14 0;
#X connect 21 1 20 0;
#X connect 23 0 22 0;
#X connect 26 0 28 0;
#X connect 26 0 29 0;
#X connect 27 0 28 0;
#X connect 27 0 29 0;
#X connect 29 0 3 0;
